<?xml version="1.0" encoding="UTF-8" standalone="no"?>
<svg width="44px" height="56px" viewBox="0 0 44 56" version="1.1" xmlns="http://www.w3.org/2000/svg" xmlns:xlink="http://www.w3.org/1999/xlink" xmlns:sketch="http://www.bohemiancoding.com/sketch/ns">
    <title>files</title>
    <description>Created with Sketch (http://www.bohemiancoding.com/sketch)</description>
    <defs>
        <linearGradient x1="0%" y1="3.35344587%" x2="83.4019252%" y2="100%" id="linearGradient-1">
            <stop stop-color="#36A3DC" offset="0%"></stop>
            <stop stop-color="#59B9EB" offset="100%"></stop>
        </linearGradient>
    </defs>
    <g id="Page-1" stroke="none" stroke-width="1" fill="none" fill-rule="evenodd" sketch:type="MSPage">
        <g id="files" sketch:type="MSArtboardGroup" fill="url(#linearGradient-1)">
            <path d="M22,22 L22,15 L29,22 L22,22 Z M30,54 L2,54 L2,14 L20,14 L20,23 C20,23.553 20.447,24 21,24 L30,24 L30,54 Z M2,12 C0.896,12 0,12.896 0,14 L0,54 C0,55.104 0.896,56 2,56 L30,56 C31.104,56 32,55.104 32,54 L32,22 L22,12 L2,12 Z M37,22 L34,22 L34,24 L37,24 C37.553,24 38,23.553 38,23 C38,22.447 37.553,22 37,22 L37,22 Z M34,10 L34,3 L41,10 L34,10 Z M34,0 L14,0 C12.896,0 12,0.896 12,2 L12,9 C12,9.553 12.447,10 13,10 C13.553,10 14,9.553 14,9 L14,2 L32,2 L32,11 C32,11.553 32.447,12 33,12 L42,12 L42,42 L35,42 C34.447,42 34,42.447 34,43 C34,43.553 34.447,44 35,44 L42,44 C43.104,44 44,43.104 44,42 L44,10 L34,0 Z M25,40 L7,40 C6.447,40 6,40.447 6,41 C6,41.553 6.447,42 7,42 L25,42 C25.553,42 26,41.553 26,41 C26,40.447 25.553,40 25,40 L25,40 Z M37,16 L29,16 L31,18 L37,18 C37.553,18 38,17.553 38,17 C38,16.447 37.553,16 37,16 L37,16 Z M37,28 L34,28 L34,30 L37,30 C37.553,30 38,29.553 38,29 C38,28.448 37.553,28 37,28 L37,28 Z M6,29 C6,29.553 6.447,30 7,30 L25,30 C25.553,30 26,29.553 26,29 C26,28.448 25.553,28 25,28 L7,28 C6.447,28 6,28.448 6,29 L6,29 Z M7,36 L19,36 C19.553,36 20,35.553 20,35 C20,34.448 19.553,34 19,34 L7,34 C6.447,34 6,34.448 6,35 C6,35.553 6.447,36 7,36 L7,36 Z" id="Fill-255" sketch:type="MSShapeGroup"></path>
        </g>
    </g>
</svg>