<?xml version="1.0" encoding="UTF-8" standalone="no"?>
<svg width="56px" height="56px" viewBox="0 0 56 56" version="1.1" xmlns="http://www.w3.org/2000/svg" xmlns:xlink="http://www.w3.org/1999/xlink" xmlns:sketch="http://www.bohemiancoding.com/sketch/ns">
    <title>Slice 1</title>
    <description>Created with Sketch (http://www.bohemiancoding.com/sketch)</description>
    <defs>
        <linearGradient x1="2.03159877%" y1="10.5259487%" x2="96.4704241%" y2="89.1287667%" id="linearGradient-1">
            <stop stop-color="#3DA8DF" offset="0%"></stop>
            <stop stop-color="#59B9EB" offset="100%"></stop>
        </linearGradient>
    </defs>
    <g id="Page-1" stroke="none" stroke-width="1" fill="none" fill-rule="evenodd" sketch:type="MSPage">
        <path d="M28,30 C26.896,30 26,29.104 26,28 C26,26.896 26.896,26 28,26 C29.104,26 30,26.896 30,28 C30,29.104 29.104,30 28,30 M55,27 C54.447,27 54,27.448 54,28 C54,42.359 42.359,54 28,54 C13.641,54 2,42.359 2,28 C2,13.641 13.641,2 28,2 C33.212,2 38.056,3.55 42.125,6.19 L36.363,14.379 C33.927,12.88 31.069,12 28,12 C19.163,12 12,19.164 12,28 C12,36.837 19.163,44 28,44 C36.837,44 44,36.837 44,28 C44,27.448 43.553,27 43,27 C42.447,27 42,27.448 42,28 C42,35.732 35.732,42 28,42 C20.268,42 14,35.732 14,28 C14,20.268 20.268,14 28,14 C30.642,14 33.103,14.745 35.211,16.016 L29.406,24.265 C28.97,24.095 28.497,24 28,24 C25.791,24 24,25.791 24,28 C24,30.209 25.791,32 28,32 C30.209,32 32,30.209 32,28 C32,27.504 31.898,27.034 31.733,26.596 L55.575,9.818 L55.565,9.803 C55.821,9.622 56,9.338 56,9 C56,8.724 55.888,8.474 55.707,8.293 L47.707,0.293 C47.526,0.112 47.276,0 47,0 C46.662,0 46.378,0.179 46.197,0.436 L46.183,0.425 L43.277,4.553 C38.882,1.683 33.641,0 28,0 C12.536,0 0,12.536 0,28 C0,43.464 12.536,56 28,56 C43.464,56 56,43.464 56,28 C56,27.448 55.553,27 55,27" id="Fill-352" fill="url(#linearGradient-1)" sketch:type="MSShapeGroup"></path>
    </g>
</svg>