<?xml version="1.0" encoding="UTF-8" standalone="no"?>
<svg width="56px" height="56px" viewBox="0 0 56 56" version="1.1" xmlns="http://www.w3.org/2000/svg" xmlns:xlink="http://www.w3.org/1999/xlink" xmlns:sketch="http://www.bohemiancoding.com/sketch/ns">
    <title>task</title>
    <description>Created with Sketch (http://www.bohemiancoding.com/sketch)</description>
    <defs>
        <linearGradient x1="0%" y1="3.35344587%" x2="83.4019252%" y2="100%" id="linearGradient-1">
            <stop stop-color="#36A3DC" offset="0%"></stop>
            <stop stop-color="#59B9EB" offset="100%"></stop>
        </linearGradient>
    </defs>
    <g id="Page-1" stroke="none" stroke-width="1" fill="none" fill-rule="evenodd" sketch:type="MSPage">
        <g id="task" sketch:type="MSArtboardGroup" fill="url(#linearGradient-1)">
            <path d="M41,19 C40.724,19 40.474,19.112 40.293,19.293 L25,34.586 L15.707,25.293 C15.526,25.112 15.276,25 15,25 C14.448,25 14,25.447 14,26 C14,26.276 14.112,26.526 14.293,26.707 L24.293,36.707 C24.474,36.889 24.724,37 25,37 C25.276,37 25.526,36.889 25.707,36.707 L41.707,20.707 C41.888,20.526 42,20.276 42,20 C42,19.447 41.553,19 41,19 L41,19 Z M54,31.715 C54,48.429 48.429,54 31.715,54 L24.286,54 C7.571,54 2,48.429 2,31.715 L2,24.286 C2,7.571 7.571,2 24.286,2 L31.715,2 C48.429,2 54,7.571 54,24.286 L54,31.715 Z M32,0 L24,0 C6,0 0,6 0,24 L0,32 C0,50 6,56 24,56 L32,56 C50,56 56,50 56,32 L56,24 C56,6 50,0 32,0 L32,0 Z" id="Fill-439" sketch:type="MSShapeGroup"></path>
        </g>
    </g>
</svg>