<?xml version="1.0" encoding="UTF-8" standalone="no"?>
<svg width="56px" height="56px" viewBox="0 0 56 56" version="1.1" xmlns="http://www.w3.org/2000/svg" xmlns:xlink="http://www.w3.org/1999/xlink" xmlns:sketch="http://www.bohemiancoding.com/sketch/ns">
    <title>time</title>
    <description>Created with Sketch (http://www.bohemiancoding.com/sketch)</description>
    <defs>
        <linearGradient x1="0%" y1="3.35344587%" x2="83.4019252%" y2="100%" id="linearGradient-1">
            <stop stop-color="#36A3DC" offset="0%"></stop>
            <stop stop-color="#59B9EB" offset="100%"></stop>
        </linearGradient>
    </defs>
    <g id="Page-1" stroke="none" stroke-width="1" fill="none" fill-rule="evenodd" sketch:type="MSPage">
        <g id="time" sketch:type="MSArtboardGroup" fill="url(#linearGradient-1)">
            <path d="M28,54 C13.641,54 2,42.359 2,28 C2,13.641 13.641,2 28,2 C42.359,2 54,13.641 54,28 C54,42.359 42.359,54 28,54 M28,0 C12.536,0 0,12.536 0,28 C0,43.464 12.536,56 28,56 C43.464,56 56,43.464 56,28 C56,12.536 43.464,0 28,0 M28,7 C27.447,7 27,7.448 27,8 L27,27 L15,27 C14.447,27 14,27.448 14,28 C14,28.553 14.447,29 15,29 L28,29 C28.553,29 29,28.553 29,28 L29,8 C29,7.448 28.553,7 28,7" id="Fill-68" sketch:type="MSShapeGroup"></path>
        </g>
    </g>
</svg>