<?xml version="1.0" encoding="UTF-8" standalone="no"?>
<svg width="56px" height="56px" viewBox="0 0 56 56" version="1.1" xmlns="http://www.w3.org/2000/svg" xmlns:xlink="http://www.w3.org/1999/xlink" xmlns:sketch="http://www.bohemiancoding.com/sketch/ns">
    <title>Slice 1</title>
    <description>Created with Sketch (http://www.bohemiancoding.com/sketch)</description>
    <defs>
        <linearGradient x1="0%" y1="3.35344587%" x2="83.4019252%" y2="100%" id="linearGradient-1">
            <stop stop-color="#36A3DC" offset="0%"></stop>
            <stop stop-color="#59B9EB" offset="100%"></stop>
        </linearGradient>
    </defs>
    <g id="Page-1" stroke="none" stroke-width="1" fill="none" fill-rule="evenodd" sketch:type="MSPage">
        <path d="M39,8.947 C38.521,8.672 37.91,8.835 37.634,9.313 L35.634,12.777 C35.357,13.256 35.521,13.867 36,14.143 C36.479,14.42 37.09,14.256 37.366,13.777 L39.366,10.313 C39.643,9.835 39.479,9.223 39,8.947 L39,8.947 Z M28,30 C26.896,30 26,29.104 26,28 C26,26.895 26.896,26 28,26 C29.104,26 30,26.895 30,28 C30,29.104 29.104,30 28,30 L28,30 Z M37.313,17.272 L30.021,24.566 C29.425,24.215 28.74,24 28,24 C25.791,24 24,25.791 24,28 C24,30.209 25.791,32 28,32 C30.209,32 32,30.209 32,28 C32,27.259 31.785,26.575 31.435,25.98 L38.728,18.686 C39.118,18.296 39.118,17.662 38.728,17.272 C38.338,16.882 37.704,16.882 37.313,17.272 L37.313,17.272 Z M45.275,47.3923 C40.909,42.8513 34.798,40.0003 28,40.0003 C21.202,40.0003 15.091,42.8513 10.725,47.3923 C5.383,42.6313 2,35.718 2,28 C2,13.64 13.641,2 28,2 C42.359,2 54,13.64 54,28 C54,35.718 50.617,42.6313 45.275,47.3923 L45.275,47.3923 Z M28,54.0003 C22.087,54.0003 16.653,52.0043 12.285,48.6783 C16.279,44.5793 21.824,42.0003 28,42.0003 C34.176,42.0003 39.721,44.5793 43.715,48.6783 C39.347,52.0043 33.913,54.0003 28,54.0003 L28,54.0003 Z M28,0 C12.536,0 0,12.536 0,28 C0,43.4643 12.536,56.0003 28,56.0003 C43.464,56.0003 56,43.4643 56,28 C56,12.536 43.464,0 28,0 L28,0 Z M49,27 L45,27 C44.447,27 44,27.447 44,28 C44,28.552 44.447,29 45,29 L49,29 C49.553,29 50,28.552 50,28 C50,27.447 49.553,27 49,27 L49,27 Z M18.366,9.313 C18.09,8.835 17.479,8.672 17,8.947 C16.521,9.223 16.357,9.835 16.634,10.313 L18.634,13.777 C18.91,14.256 19.521,14.42 20,14.143 C20.479,13.867 20.643,13.256 20.366,12.777 L18.366,9.313 Z M46.687,37.6343 L43.223,35.634 C42.744,35.357 42.133,35.521 41.856,36.0003 C41.58,36.4783 41.744,37.0903 42.223,37.3663 L45.687,39.3663 C46.165,39.6423 46.776,39.4783 47.053,39.0003 C47.329,38.5213 47.165,37.9103 46.687,37.6343 L46.687,37.6343 Z M43.223,20.366 L46.687,18.366 C47.165,18.09 47.329,17.478 47.053,17 C46.776,16.521 46.165,16.358 45.687,16.634 L42.223,18.634 C41.744,18.91 41.58,19.521 41.856,20 C42.133,20.478 42.744,20.642 43.223,20.366 L43.223,20.366 Z M28,12 C28.553,12 29,11.552 29,11 L29,7 C29,6.448 28.553,6 28,6 C27.447,6 27,6.448 27,7 L27,11 C27,11.552 27.447,12 28,12 L28,12 Z M13.777,18.634 L10.313,16.634 C9.835,16.358 9.224,16.521 8.947,17 C8.671,17.478 8.835,18.09 9.313,18.366 L12.777,20.366 C13.256,20.642 13.867,20.478 14.144,20 C14.42,19.521 14.256,18.91 13.777,18.634 L13.777,18.634 Z M12.777,35.634 L9.313,37.6343 C8.835,37.9103 8.671,38.5213 8.947,39.0003 C9.224,39.4783 9.835,39.6423 10.313,39.3663 L13.777,37.3663 C14.256,37.0903 14.42,36.4783 14.144,36.0003 C13.867,35.521 13.256,35.357 12.777,35.634 L12.777,35.634 Z M12,28 C12,27.447 11.553,27 11,27 L7,27 C6.447,27 6,27.447 6,28 C6,28.552 6.447,29 7,29 L11,29 C11.553,29 12,28.552 12,28 L12,28 Z" id="Fill-225" fill="url(#linearGradient-1)" sketch:type="MSShapeGroup"></path>
    </g>
</svg>