<svg version="1" xmlns="http://www.w3.org/2000/svg" width="160" height="48.927" viewBox="0 0 160 48.927"><path fill="#fff" d="M.004 1.398h9.148V40.31H.004zM20.452.873c-.152.04-.362.023-.622-.043-.258-.065-2.128-.79-3.292-.72-3.06.19-5.282 2.77-5.093 5.83.19 3.06 2.825 5.387 5.885 5.196 3.06-.19 5.386-2.825 5.194-5.884-.01-.204-.014-.296-.034-.513-.006-.076-.012-.132-.012-.16-.04-.598-.405-4.573-.405-4.573-.41.663-1.62.866-1.62.866"/><path fill="#fff" d="M12.417 17.413h9.106V40.31h-9.106z"/><g fill="#fff"><path d="M40.255 40.31V27.8c0-.53 0-1.015-.133-1.547-.22-.795-.886-1.902-2.96-1.902-3.36 0-3.315 2.79-3.315 3.76v12.2h-9.06V17.414h8.573v3.048c.575-.838.663-.926 1.107-1.37 1.68-1.678 4.11-2.297 6.45-2.297.842 0 3.673.042 5.838 1.902 1.192.97 1.945 2.473 2.296 3.976.18.754.312 1.55.312 3.185V40.31h-9.107zM65.84 23.47c-.265-.134-.84-.4-1.635-.356-.575 0-1.15.133-1.633.355-1.286.616-2.168 2.076-2.168 4.952 0 1.943.44 3.136 1.016 3.753.312.357.665.578 1.107.754.175.09.795.265 1.458.265.354 0 .974 0 1.724-.357 1.81-.793 2.03-3.045 2.03-4.772 0-1.634-.178-3.758-1.9-4.597m10.743 16.84c-.046 1.013-.224 3.89-2.652 5.923-2.608 2.213-7.073 2.7-10.3 2.7-1.236 0-2.473-.046-3.713-.183-2.516-.305-5.438-.928-6.983-3.266-.97-1.506-1.062-3.05-1.106-4.863h8.268c0 .267-.09 1.456.708 2.163.44.402 1.458.8 2.874.8.22 0 2.075-.046 3.14-.845 1.233-.922 1.103-2.74 1.103-3.045 0-.975.043-1.904.043-2.832-.4.618-.44.71-.795.976-1.37 1.104-3.447 1.37-5.125 1.37-2.432 0-4.51-.442-6.454-1.948-1.683-1.28-3.848-3.974-3.848-9.063 0-1.1.088-5.48 2.918-8.483 1.99-2.123 5.038-2.918 7.87-2.918.66 0 3.223 0 5.127 1.503.394.31.617.53 1.192 1.282l-.047-2.167h7.87V39.03c-.045.443-.045.837-.09 1.28"/><path d="M124.24 25.015c-.84-1.502-2.253-1.768-2.87-1.768-.665 0-1.37.266-1.902.664-1.016.796-1.594 2.257-1.594 4.908 0 1.416.224 3.402 1.282 4.506.532.578 1.458.974 2.3.974.885 0 1.55-.396 1.77-.57 1.588-1.11 1.72-3.272 1.72-4.954 0-1.284-.083-2.607-.706-3.76m.754 15.297l-.047-1.636c-.084.09-.482.576-.928.928-1.28.928-3.225 1.285-4.816 1.285-2.434 0-4.157-.797-4.953-1.285-5.262-3.006-5.395-9.946-5.35-11.27 0-.794 0-2.918.8-5.13.706-1.898 3.136-6.452 9.238-6.452.708 0 2.74.044 4.552 1.238.4.265.62.442 1.237 1.018V9.103h9.062V40.31h-8.796zM147.097 30.72c-.975.22-2.34.527-3.052 1.416-.087.13-.396.525-.396 1.06 0 .706.574 1.764 2.25 1.764.8 0 1.508-.26 2.212-.617 2.565-1.368 2.433-3.622 2.433-4.687-1.15.396-2.3.753-3.448 1.064m3.935 9.59v-1.767c-.354.26-.797.617-1.682 1.06-.972.487-3.05 1.24-5.922 1.24-.574 0-2.123 0-3.67-.58-2.96-1.147-4.553-3.712-4.553-6.803 0-1.24.267-3.98 3.14-5.922 1.9-1.285 4.334-1.595 6.542-1.905 1.283-.176 2.65-.35 3.937-.62.57-.13 1.19-.264 1.766-.44 0-.088 0-.71-.133-1.06-.267-.93-.926-1.595-2.96-1.595-.666 0-1.105.09-1.326.135-1.413.354-1.55 1.547-1.68 2.032l-8.532.222c.09-.485.22-.928.31-1.37.223-.884.707-2.477 2.52-3.89 1.814-1.415 4.597-2.388 9.55-2.388 3.577 0 8.44.573 10.21 4.287.484 1.017.663 1.946.663 4.066v12.464c0 1.682.222 2.04.796 2.832h-8.974zM92.878 34.926c-3.01.188-5.598-2.1-5.787-5.106-.186-3.012 2-5.546 5.008-5.733 1.144-.07 2.982.666 3.238.715.297.057.35.082.665.066.267-.015 1.14-.232 1.54-.88 0 0 .36 3.908.397 4.497 0 .023.01.08.014.153.02.215.022.306.038.503.184 3.01-2.103 5.598-5.11 5.786m14.197-6.646c-.033-.526-.042-.758-.087-1.325-.018-.19-.03-.334-.03-.408-.1-1.542-1.046-11.792-1.046-11.792-1.06 1.707-3.343 2.278-4.04 2.313-.823.045-.962-.025-1.743-.173-.675-.127-5.503-2.06-8.496-1.874-7.89.492-13.626 7.144-13.133 15.038.487 7.892 7.284 13.894 15.178 13.405 7.89-.498 13.89-7.29 13.397-15.183"/></g></svg>